<?xml version="1.0" encoding="UTF-8"?>
<svg width="563.08" height="168.86" version="1.1" viewBox="-.5 .5 563.08 168.86" xmlns="http://www.w3.org/2000/svg">
 <style/>
 <g transform="matrix(.32981 0 0 .32981 196.61 .49999)" stroke-width="6.3204">
  <path d="m179.6 319.85c3.65-4.55 7.1-9.65 10.3-15.4l-0.25-45h132.7l-0.25 45c1.15 4 2.7 7.6 4.55 10.9 55.25 45.65 100.35 44.35 100.35 137.85 0 2.15-0.3 4.3-0.95 6.4-12.45 41.45-135.1 47.4-170.05 47.4s-157.6-5.95-170.05-47.4c-0.65-2.1-0.95-4.25-0.95-6.4 0-86.2 38.55-91.95 94.6-133.35z" fill="#f5a557"/>
  <path d="m256 512c-73.35 0-176-14.7-176-58.8 0-92.75 55.9-108.35 94.45-135.8 5.35 11.7 17.35 19.9 28.7 25 16.1 7.3 35.3 10.8 52.85 10.8s36.75-3.5 52.85-10.8c11.35-5.1 23.35-13.3 28.7-25 38.55 27.45 94.45 43.05 94.45 135.8 0 44.1-102.65 58.8-176 58.8z" fill="#0299e3"/>
  <path d="m337.55 317.4c38.55 27.45 94.45 43.05 94.45 135.8 0 44.1-102.65 58.8-176 58.8v-158.8c17.55 0 36.75-3.5 52.85-10.8 11.35-5.1 23.35-13.3 28.7-25z" fill="#0287cf"/>
  <path d="m256 353.2c-17.55 0-36.75-3.5-52.85-10.8-11.35-5.1-23.35-13.3-28.7-25 5.6-3.95 10.8-8.2 15.45-12.95 0.1 15.45 32.9 30 66.1 30s66-14.55 66.1-30c4.65 4.75 9.85 9 15.45 12.95-5.35 11.7-17.35 19.9-28.7 25-16.1 7.3-35.3 10.8-52.85 10.8z" fill="#fff"/>
  <path d="m322.1 304.45c4.65 4.75 9.85 9 15.45 12.95-5.35 11.7-17.35 19.9-28.7 25-16.1 7.3-35.3 10.8-52.85 10.8v-18.75c33.2 0 66-14.55 66.1-30z" fill="#ebedef"/>
  <path d="m256 32c84.05 0 112.1 60 112.1 120 0 75-56.05 150-112.1 150s-112.1-75-112.1-150c0-60 28.05-120 112.1-120z" fill="#f5b673"/>
  <path d="m256 32c84.05 0 112.1 60 112.1 120 0 75-56.05 150-112.1 150z" fill="#f5a557"/>
  <path d="m256 16c43.5 0 99.9 19 123.05 48h-27.7c-7.45 0-13.9-2.2-19.75-6.85-19.9-15.6-46.45-25.15-75.6-25.15s-55.7 9.55-75.6 25.15c-5.85 4.65-12.3 6.85-19.75 6.85h-27.2c23.15-29 79.05-48 122.55-48z" fill="#546e7a"/>
  <path d="m256 16c43.5 0 99.9 19 123.05 48h-27.7c-7.45 0-13.9-2.2-19.75-6.85-19.9-15.6-46.45-25.15-75.6-25.15z" fill="#445a64"/>
  <path d="m114.6 219.25-9.5-68.95c-0.95-5.85-1.4-11.8-1.4-17.9 0-73 68.6-132.4 152.3-132.4s152.3 59.4 152.3 132.4c0 6.1-0.45 12.05-1.4 17.9l-9.5 68.95-15.8-2.2 9.45-68.95c0.85-5.15 1.25-10.4 1.25-15.7 0-71.05-70.15-116.4-136.3-116.4s-136.3 45.35-136.3 116.4c0 5.3 0.4 10.55 1.25 15.7l9.45 68.95z" fill="#7cb142"/>
  <path d="m397.4 219.25 9.5-68.95c0.95-5.85 1.4-11.8 1.4-17.9 0-73-68.6-132.4-152.3-132.4v16c66.15 0 136.3 45.35 136.3 116.4 0 5.3-0.4 10.55-1.25 15.7l-9.45 68.95z" fill="#689d38"/>
  <path d="m416.95 194-5.4 39.8c-3.2 23.25-14.45 34.95-32.1 40.85-15.95 5.35-36.5 5.35-61.15 5.35h-32v-16h32c23.35 0 42.75 0 56.1-4.5 11.65-3.9 19.1-11.85 21.3-27.85l7.7-55.65c8.65 1.25 14.75 9.35 13.55 18z" fill="#445a64"/>
  <polygon points="119.25 137.8 135.05 135.6 148.4 230.65 132.55 232.9" fill="#9bcb64"/>
  <polygon points="392.75 137.8 376.95 135.6 363.6 230.65 379.45 232.9" fill="#7cb142"/>
  <polygon points="125.9 185.35 141.75 183.15 148.4 230.65 132.55 232.9" fill="#7cb142"/>
  <polygon points="386.1 185.35 370.25 183.15 363.6 230.65 379.45 232.9" fill="#689d38"/>
  <path d="m135.05 135.6c8.75-1.25 16.85 4.9 18.1 13.6l8.9 63.4c1.2 8.7-4.9 16.85-13.65 18.05z" fill="#788f9b"/>
  <path d="m157.6 180.9 4.45 31.7c1.2 8.7-4.9 16.85-13.65 18.05l-6.65-47.5z" fill="#546e7a"/>
  <path d="m376.95 135.6c-8.75-1.25-16.85 4.9-18.1 13.6l-8.9 63.4c-1.2 8.7 4.9 16.85 13.65 18.05z" fill="#546e7a"/>
  <path d="m354.4 180.9-4.45 31.7c-1.2 8.7 4.9 16.85 13.65 18.05l6.65-47.5z" fill="#445a64"/>
  <path d="m280 256h32c4.4 0 8 3.6 8 8v16c0 4.4-3.6 8-8 8h-32c-4.4 0-8-3.6-8-8v-16c0-4.4 3.6-8 8-8z" fill="#546e7a"/>
 </g>
</svg>
