<svg x="0" y="0" width="512" height="512" version="1.1"
    xmlns="http://www.w3.org/2000/svg"
    xmlns:xlink="http://www.w3.org/1999/xlink" viewBox="0 0 512 512">
    <title>user headset icon</title>
    <desc>user headset icon from the IconExperience.com G-Collection. Copyright by INCORS GmbH (www.incors.com).</desc>
    <g>
        <path d="M179.6,319.85c3.65,-4.55 7.1,-9.65 10.3,-15.4l-0.25,-45c44.75,0 87.95,0 132.7,0l-0.25,45c1.15,4 2.7,7.6 4.55,10.9c55.25,45.65 100.35,44.35 100.35,137.85c0,2.15 -0.3,4.3 -0.95,6.4c-12.45,41.45 -135.1,47.4 -170.05,47.4c-34.95,0 -157.6,-5.95 -170.05,-47.4c-0.65,-2.1 -0.95,-4.25 -0.95,-6.4c0,-86.2 38.55,-91.95 94.6,-133.35z" fill="#f5a557"/>
        <path d="M256,512c-73.35,0 -176,-14.7 -176,-58.8c0,-92.75 55.9,-108.35 94.45,-135.8c5.35,11.7 17.35,19.9 28.7,25c16.1,7.3 35.3,10.8 52.85,10.8c17.55,0 36.75,-3.5 52.85,-10.8c11.35,-5.1 23.35,-13.3 28.7,-25c38.55,27.45 94.45,43.05 94.45,135.8c0,44.1 -102.65,58.8 -176,58.8z" fill="#0299e3"/>
        <path d="M337.55,317.4c38.55,27.45 94.45,43.05 94.45,135.8c0,44.1 -102.65,58.8 -176,58.8l0,-158.8c17.55,0 36.75,-3.5 52.85,-10.8c11.35,-5.1 23.35,-13.3 28.7,-25z" fill="#0287cf"/>
        <path d="M256,353.2c-17.55,0 -36.75,-3.5 -52.85,-10.8c-11.35,-5.1 -23.35,-13.3 -28.7,-25c5.6,-3.95 10.8,-8.2 15.45,-12.95c0.1,15.45 32.9,30 66.1,30c33.2,0 66,-14.55 66.1,-30c4.65,4.75 9.85,9 15.45,12.95c-5.35,11.7 -17.35,19.9 -28.7,25c-16.1,7.3 -35.3,10.8 -52.85,10.8z" fill="#ffffff"/>
        <path d="M322.1,304.45c4.65,4.75 9.85,9 15.45,12.95c-5.35,11.7 -17.35,19.9 -28.7,25c-16.1,7.3 -35.3,10.8 -52.85,10.8l0,-18.75c33.2,0 66,-14.55 66.1,-30z" fill="#ebedef"/>
        <path d="M256,32c84.05,0 112.1,60 112.1,120c0,75 -56.05,150 -112.1,150c-56.05,0 -112.1,-75 -112.1,-150c0,-60 28.05,-120 112.1,-120z" fill="#f5b673"/>
        <path d="M256,32c84.05,0 112.1,60 112.1,120c0,75 -56.05,150 -112.1,150z" fill="#f5a557"/>
        <path d="M256,16c43.5,0 99.9,19 123.05,48l-27.7,0c-7.45,0 -13.9,-2.2 -19.75,-6.85c-19.9,-15.6 -46.45,-25.15 -75.6,-25.15c-29.15,0 -55.7,9.55 -75.6,25.15c-5.85,4.65 -12.3,6.85 -19.75,6.85l-27.2,0c23.15,-29 79.05,-48 122.55,-48z" fill="#546e7a"/>
        <path d="M256,16c43.5,0 99.9,19 123.05,48l-27.7,0c-7.45,0 -13.9,-2.2 -19.75,-6.85c-19.9,-15.6 -46.45,-25.15 -75.6,-25.15z" fill="#445a64"/>
        <path d="M114.6,219.25l-9.5,-68.95c-0.95,-5.85 -1.4,-11.8 -1.4,-17.9c0,-73 68.6,-132.4 152.3,-132.4c83.7,0 152.3,59.4 152.3,132.4c0,6.1 -0.45,12.05 -1.4,17.9l-9.5,68.95l-15.8,-2.2l9.45,-68.95c0.85,-5.15 1.25,-10.4 1.25,-15.7c0,-71.05 -70.15,-116.4 -136.3,-116.4c-66.15,0 -136.3,45.35 -136.3,116.4c0,5.3 0.4,10.55 1.25,15.7l9.45,68.95z" fill="#7cb142"/>
        <path d="M397.4,219.25l9.5,-68.95c0.95,-5.85 1.4,-11.8 1.4,-17.9c0,-73 -68.6,-132.4 -152.3,-132.4l0,16c66.15,0 136.3,45.35 136.3,116.4c0,5.3 -0.4,10.55 -1.25,15.7l-9.45,68.95z" fill="#689d38"/>
        <path d="M416.95,194l-5.4,39.8c-3.2,23.25 -14.45,34.95 -32.1,40.85c-15.95,5.35 -36.5,5.35 -61.15,5.35l-32,0l0,-16l32,0c23.35,0 42.75,0 56.1,-4.5c11.65,-3.9 19.1,-11.85 21.3,-27.85l7.7,-55.65l0,0c8.65,1.25 14.75,9.35 13.55,18z" fill="#445a64"/>
        <polygon points="119.25,137.8 135.05,135.6 148.4,230.65 132.55,232.9" fill="#9bcb64"/>
        <polygon points="392.75,137.8 376.95,135.6 363.6,230.65 379.45,232.9" fill="#7cb142"/>
        <polygon points="125.9,185.35 141.75,183.15 148.4,230.65 132.55,232.9" fill="#7cb142"/>
        <polygon points="386.1,185.35 370.25,183.15 363.6,230.65 379.45,232.9" fill="#689d38"/>
        <path d="M135.05,135.6c8.75,-1.25 16.85,4.9 18.1,13.6l8.9,63.4c1.2,8.7 -4.9,16.85 -13.65,18.05z" fill="#788f9b"/>
        <path d="M157.6,180.9l4.45,31.7c1.2,8.7 -4.9,16.85 -13.65,18.05l-6.65,-47.5z" fill="#546e7a"/>
        <path d="M376.95,135.6l0,0c-8.75,-1.25 -16.85,4.9 -18.1,13.6l-8.9,63.4c-1.2,8.7 4.9,16.85 13.65,18.05z" fill="#546e7a"/>
        <path d="M354.4,180.9l-4.45,31.7c-1.2,8.7 4.9,16.85 13.65,18.05l6.65,-47.5z" fill="#445a64"/>
        <path d="M280,256l32,0c4.4,0 8,3.6 8,8l0,16c0,4.4 -3.6,8 -8,8l-32,0c-4.4,0 -8,-3.6 -8,-8l0,-8l0,-8c0,-4.4 3.6,-8 8,-8z" fill="#546e7a"/>
    </g>
</svg>